# xmcd CD database file
#
# Track frame offsets:
#	150
#	17063
#	41117
#	56655
#	70481
#	93372
#	110081
#	124622
#	139820
#	162746
#
# Disc length: 2409 seconds
#
# Revision: 0
# Processed by: cddbd v1.5.2PL0 Copyright (c) Steve Scherf et al.
# Submitted via: CDex 1.51
#
DISCID=9409670a
DTITLE=Jimmy "Duck" Holmes - Ain't It Lonesome
DYEAR=2010
DGENRE=Blues
TTITLE0=Slow Down, Slow Down
TTITLE1=That's Alright
TTITLE2=All Night Long
TTITLE3=Done Got Tired of Tryin'
TTITLE4=My Baby's Gone
TTITLE5=Bentonia Boogie
TTITLE6=Someday Baby
TTITLE7=So Glad (My Baby's Coming Home)
TTITLE8=Tell Me Woman
TTITLE9=Nightmare
EXTD=YEAR: 2010
EXTT0=
EXTT1=
EXTT2=
EXTT3=
EXTT4=
EXTT5=
EXTT6=
EXTT7=
EXTT8=
EXTT9=
PLAYORDER=
